G04*
G04 #@! TF.GenerationSoftware,Altium Limited,Altium Designer,18.1.9 (240)*
G04*
G04 Layer_Color=128*
%FSLAX25Y25*%
%MOIN*%
G70*
G01*
G75*
%ADD40C,0.00200*%
D40*
X83400Y304000D02*
X87600D01*
X85500Y301900D02*
Y306100D01*
X73400Y304000D02*
X77600D01*
X75500Y301900D02*
Y306100D01*
X43400Y304000D02*
X47600D01*
X45500Y301900D02*
Y306100D01*
X53400Y304000D02*
X57600D01*
X55500Y301900D02*
Y306100D01*
X63400Y304000D02*
X67600D01*
X65500Y301900D02*
Y306100D01*
X339400Y320000D02*
X343600D01*
X341500Y317900D02*
Y322100D01*
X339400Y310000D02*
X343600D01*
X341500Y307900D02*
Y312100D01*
X339400Y300000D02*
X343600D01*
X341500Y297900D02*
Y302100D01*
X352900Y300000D02*
X357100D01*
X355000Y297900D02*
Y302100D01*
X352900Y310000D02*
X357100D01*
X355000Y307900D02*
Y312100D01*
X352900Y320000D02*
X357100D01*
X355000Y317900D02*
Y322100D01*
X366900Y320000D02*
X371100D01*
X369000Y317900D02*
Y322100D01*
X366900Y310000D02*
X371100D01*
X369000Y307900D02*
Y312100D01*
X366900Y300000D02*
X371100D01*
X369000Y297900D02*
Y302100D01*
X380400Y300000D02*
X384600D01*
X382500Y297900D02*
Y302100D01*
X380400Y310000D02*
X384600D01*
X382500Y307900D02*
Y312100D01*
X380400Y320000D02*
X384600D01*
X382500Y317900D02*
Y322100D01*
X153000Y124500D02*
X158000D01*
X155500Y122000D02*
Y127000D01*
X153000Y134500D02*
X158000D01*
X155500Y132000D02*
Y137000D01*
X153000Y114500D02*
X158000D01*
X155500Y112000D02*
Y117000D01*
X375400Y84000D02*
X379600D01*
X377500Y81900D02*
Y86100D01*
X375400Y94000D02*
X379600D01*
X377500Y91900D02*
Y96100D01*
X375400Y104000D02*
X379600D01*
X377500Y101900D02*
Y106100D01*
X375400Y114000D02*
X379600D01*
X377500Y111900D02*
Y116100D01*
X375400Y124000D02*
X379600D01*
X377500Y121900D02*
Y126100D01*
X375400Y134000D02*
X379600D01*
X377500Y131900D02*
Y136100D01*
X375400Y144000D02*
X379600D01*
X377500Y141900D02*
Y146100D01*
X375400Y154000D02*
X379600D01*
X377500Y151900D02*
Y156100D01*
X375400Y164000D02*
X379600D01*
X377500Y161900D02*
Y166100D01*
X375400Y174000D02*
X379600D01*
X377500Y171900D02*
Y176100D01*
X365400Y84000D02*
X369600D01*
X367500Y81900D02*
Y86100D01*
X365400Y94000D02*
X369600D01*
X367500Y91900D02*
Y96100D01*
X365400Y104000D02*
X369600D01*
X367500Y101900D02*
Y106100D01*
X365400Y114000D02*
X369600D01*
X367500Y111900D02*
Y116100D01*
X365400Y124000D02*
X369600D01*
X367500Y121900D02*
Y126100D01*
X365400Y134000D02*
X369600D01*
X367500Y131900D02*
Y136100D01*
X365400Y144000D02*
X369600D01*
X367500Y141900D02*
Y146100D01*
X365400Y154000D02*
X369600D01*
X367500Y151900D02*
Y156100D01*
X365400Y164000D02*
X369600D01*
X367500Y161900D02*
Y166100D01*
X365400Y174000D02*
X369600D01*
X367500Y171900D02*
Y176100D01*
X195400Y174000D02*
X199600D01*
X197500Y171900D02*
Y176100D01*
X195400Y164000D02*
X199600D01*
X197500Y161900D02*
Y166100D01*
X195400Y154000D02*
X199600D01*
X197500Y151900D02*
Y156100D01*
X195400Y144000D02*
X199600D01*
X197500Y141900D02*
Y146100D01*
X195400Y134000D02*
X199600D01*
X197500Y131900D02*
Y136100D01*
X195400Y124000D02*
X199600D01*
X197500Y121900D02*
Y126100D01*
X195400Y114000D02*
X199600D01*
X197500Y111900D02*
Y116100D01*
X195400Y104000D02*
X199600D01*
X197500Y101900D02*
Y106100D01*
X195400Y94000D02*
X199600D01*
X197500Y91900D02*
Y96100D01*
X195400Y84000D02*
X199600D01*
X197500Y81900D02*
Y86100D01*
X205400Y174000D02*
X209600D01*
X207500Y171900D02*
Y176100D01*
X205400Y164000D02*
X209600D01*
X207500Y161900D02*
Y166100D01*
X205400Y154000D02*
X209600D01*
X207500Y151900D02*
Y156100D01*
X205400Y144000D02*
X209600D01*
X207500Y141900D02*
Y146100D01*
X205400Y134000D02*
X209600D01*
X207500Y131900D02*
Y136100D01*
X205400Y124000D02*
X209600D01*
X207500Y121900D02*
Y126100D01*
X205400Y114000D02*
X209600D01*
X207500Y111900D02*
Y116100D01*
X205400Y104000D02*
X209600D01*
X207500Y101900D02*
Y106100D01*
X205400Y94000D02*
X209600D01*
X207500Y91900D02*
Y96100D01*
X205400Y84000D02*
X209600D01*
X207500Y81900D02*
Y86100D01*
X289900Y330000D02*
X294100D01*
X292000Y327900D02*
Y332100D01*
X289900Y320000D02*
X294100D01*
X292000Y317900D02*
Y322100D01*
X289900Y310000D02*
X294100D01*
X292000Y307900D02*
Y312100D01*
X289900Y300000D02*
X294100D01*
X292000Y297900D02*
Y302100D01*
X289900Y340000D02*
X294100D01*
X292000Y337900D02*
Y342100D01*
X289900Y350000D02*
X294100D01*
X292000Y347900D02*
Y352100D01*
X289900Y360000D02*
X294100D01*
X292000Y357900D02*
Y362100D01*
X233000Y305000D02*
X241000D01*
X237000Y301000D02*
Y309000D01*
X233000Y355000D02*
X241000D01*
X237000Y351000D02*
Y359000D01*
X108900Y305000D02*
X113100D01*
X111000Y302900D02*
Y307100D01*
X108900Y285000D02*
X113100D01*
X111000Y282900D02*
Y287100D01*
X108900Y275000D02*
X113100D01*
X111000Y272900D02*
Y277100D01*
X108900Y264000D02*
X113100D01*
X111000Y261900D02*
Y266100D01*
X108900Y254000D02*
X113100D01*
X111000Y251900D02*
Y256100D01*
X108900Y244000D02*
X113100D01*
X111000Y241900D02*
Y246100D01*
X108900Y234000D02*
X113100D01*
X111000Y231900D02*
Y236100D01*
X108900Y295000D02*
X113100D01*
X111000Y292900D02*
Y297100D01*
X171400Y305000D02*
X175600D01*
X173500Y302900D02*
Y307100D01*
X171400Y285000D02*
X175600D01*
X173500Y282900D02*
Y287100D01*
X171400Y275000D02*
X175600D01*
X173500Y272900D02*
Y277100D01*
X171400Y264000D02*
X175600D01*
X173500Y261900D02*
Y266100D01*
X171400Y254000D02*
X175600D01*
X173500Y251900D02*
Y256100D01*
X171400Y244000D02*
X175600D01*
X173500Y241900D02*
Y246100D01*
X171400Y234000D02*
X175600D01*
X173500Y231900D02*
Y236100D01*
X171400Y295000D02*
X175600D01*
X173500Y292900D02*
Y297100D01*
X36400Y116000D02*
X40600D01*
X38500Y113900D02*
Y118100D01*
X46400Y116000D02*
X50600D01*
X48500Y113900D02*
Y118100D01*
X56400Y116000D02*
X60600D01*
X58500Y113900D02*
Y118100D01*
X66400Y116000D02*
X70600D01*
X68500Y113900D02*
Y118100D01*
X76400Y116000D02*
X80600D01*
X78500Y113900D02*
Y118100D01*
X86400Y116000D02*
X90600D01*
X88500Y113900D02*
Y118100D01*
X21500Y68000D02*
X27500D01*
X24500Y65000D02*
Y71000D01*
X22000Y46000D02*
X28000D01*
X25000Y43000D02*
Y49000D01*
X55500Y68000D02*
X61500D01*
X58500Y65000D02*
Y71000D01*
X56000Y46000D02*
X62000D01*
X59000Y43000D02*
Y49000D01*
X91500Y68000D02*
X97500D01*
X94500Y65000D02*
Y71000D01*
X92000Y46000D02*
X98000D01*
X95000Y43000D02*
Y49000D01*
X127500Y68000D02*
X133500D01*
X130500Y65000D02*
Y71000D01*
X128000Y46000D02*
X134000D01*
X131000Y43000D02*
Y49000D01*
X162500Y68000D02*
X168500D01*
X165500Y65000D02*
Y71000D01*
X163000Y46000D02*
X169000D01*
X166000Y43000D02*
Y49000D01*
X314100Y288000D02*
X316900D01*
X315500Y286600D02*
Y289400D01*
X166100Y92956D02*
X168900D01*
X167500Y91556D02*
Y94356D01*
X140600Y90500D02*
X143400D01*
X142000Y89100D02*
Y91900D01*
X160100Y88500D02*
X162900D01*
X161500Y87100D02*
Y89900D01*
X148100Y88500D02*
X150900D01*
X149500Y87100D02*
Y89900D01*
X182600Y187500D02*
X185400D01*
X184000Y186100D02*
Y188900D01*
X351600Y147500D02*
X354400D01*
X353000Y146100D02*
Y148900D01*
X351600Y167000D02*
X354400D01*
X353000Y165600D02*
Y168400D01*
X8700Y15000D02*
X21300D01*
X15000Y8700D02*
Y21300D01*
X8700Y385000D02*
X21300D01*
X15000Y378700D02*
Y391300D01*
X378700Y385000D02*
X391300D01*
X385000Y378700D02*
Y391300D01*
X378700Y15000D02*
X391300D01*
X385000Y8700D02*
Y21300D01*
M02*
