%TF.GenerationSoftware,Altium Limited,Altium Designer,18.1.9 (240)*%
G04 Layer_Color=2752767*
%FSLAX26Y26*%
%MOIN*%
%TF.FileFunction,Drawing*%
%TF.Part,Single*%
G01*
G75*
%TA.AperFunction,NonConductor*%
%ADD52C,0.005000*%
%ADD53C,0.006667*%
D52*
X835000Y3020000D02*
Y3060000D01*
X875000D01*
Y3020000D01*
X835000D01*
X735000D02*
Y3060000D01*
X775000D01*
Y3020000D01*
X735000D01*
X435000D02*
Y3060000D01*
X475000D01*
Y3020000D01*
X435000D01*
X535000D02*
Y3060000D01*
X575000D01*
Y3020000D01*
X535000D01*
X635000D02*
Y3060000D01*
X675000D01*
Y3020000D01*
X635000D01*
X3395000Y3180000D02*
Y3220000D01*
X3435000D01*
Y3180000D01*
X3395000D01*
Y3080000D02*
Y3120000D01*
X3435000D01*
Y3080000D01*
X3395000D01*
X3530000D02*
Y3120000D01*
X3570000D01*
Y3080000D01*
X3530000D01*
Y3180000D02*
Y3220000D01*
X3570000D01*
Y3180000D01*
X3530000D01*
X3670000D02*
Y3220000D01*
X3710000D01*
Y3180000D01*
X3670000D01*
Y3080000D02*
Y3120000D01*
X3710000D01*
Y3080000D01*
X3670000D01*
X3805000D02*
Y3120000D01*
X3845000D01*
Y3080000D01*
X3805000D01*
Y3180000D02*
Y3220000D01*
X3845000D01*
Y3180000D01*
X3805000D01*
X1555000Y1225000D02*
X1535000Y1265000D01*
X1575000D01*
X1555000Y1225000D01*
Y1325000D02*
X1535000Y1365000D01*
X1575000D01*
X1555000Y1325000D01*
Y1125000D02*
X1535000Y1165000D01*
X1575000D01*
X1555000Y1125000D01*
X3755000Y820000D02*
Y860000D01*
X3795000D01*
Y820000D01*
X3755000D01*
Y920000D02*
Y960000D01*
X3795000D01*
Y920000D01*
X3755000D01*
Y1020000D02*
Y1060000D01*
X3795000D01*
Y1020000D01*
X3755000D01*
Y1120000D02*
Y1160000D01*
X3795000D01*
Y1120000D01*
X3755000D01*
Y1220000D02*
Y1260000D01*
X3795000D01*
Y1220000D01*
X3755000D01*
Y1320000D02*
Y1360000D01*
X3795000D01*
Y1320000D01*
X3755000D01*
Y1420000D02*
Y1460000D01*
X3795000D01*
Y1420000D01*
X3755000D01*
Y1520000D02*
Y1560000D01*
X3795000D01*
Y1520000D01*
X3755000D01*
Y1620000D02*
Y1660000D01*
X3795000D01*
Y1620000D01*
X3755000D01*
Y1720000D02*
Y1760000D01*
X3795000D01*
Y1720000D01*
X3755000D01*
X3655000Y820000D02*
Y860000D01*
X3695000D01*
Y820000D01*
X3655000D01*
Y920000D02*
Y960000D01*
X3695000D01*
Y920000D01*
X3655000D01*
Y1020000D02*
Y1060000D01*
X3695000D01*
Y1020000D01*
X3655000D01*
Y1120000D02*
Y1160000D01*
X3695000D01*
Y1120000D01*
X3655000D01*
Y1220000D02*
Y1260000D01*
X3695000D01*
Y1220000D01*
X3655000D01*
Y1320000D02*
Y1360000D01*
X3695000D01*
Y1320000D01*
X3655000D01*
Y1420000D02*
Y1460000D01*
X3695000D01*
Y1420000D01*
X3655000D01*
Y1520000D02*
Y1560000D01*
X3695000D01*
Y1520000D01*
X3655000D01*
Y1620000D02*
Y1660000D01*
X3695000D01*
Y1620000D01*
X3655000D01*
Y1720000D02*
Y1760000D01*
X3695000D01*
Y1720000D01*
X3655000D01*
X1955000D02*
Y1760000D01*
X1995000D01*
Y1720000D01*
X1955000D01*
Y1620000D02*
Y1660000D01*
X1995000D01*
Y1620000D01*
X1955000D01*
Y1520000D02*
Y1560000D01*
X1995000D01*
Y1520000D01*
X1955000D01*
Y1420000D02*
Y1460000D01*
X1995000D01*
Y1420000D01*
X1955000D01*
Y1320000D02*
Y1360000D01*
X1995000D01*
Y1320000D01*
X1955000D01*
Y1220000D02*
Y1260000D01*
X1995000D01*
Y1220000D01*
X1955000D01*
Y1120000D02*
Y1160000D01*
X1995000D01*
Y1120000D01*
X1955000D01*
Y1020000D02*
Y1060000D01*
X1995000D01*
Y1020000D01*
X1955000D01*
Y920000D02*
Y960000D01*
X1995000D01*
Y920000D01*
X1955000D01*
Y820000D02*
Y860000D01*
X1995000D01*
Y820000D01*
X1955000D01*
X2055000Y1720000D02*
Y1760000D01*
X2095000D01*
Y1720000D01*
X2055000D01*
Y1620000D02*
Y1660000D01*
X2095000D01*
Y1620000D01*
X2055000D01*
Y1520000D02*
Y1560000D01*
X2095000D01*
Y1520000D01*
X2055000D01*
Y1420000D02*
Y1460000D01*
X2095000D01*
Y1420000D01*
X2055000D01*
Y1320000D02*
Y1360000D01*
X2095000D01*
Y1320000D01*
X2055000D01*
Y1220000D02*
Y1260000D01*
X2095000D01*
Y1220000D01*
X2055000D01*
Y1120000D02*
Y1160000D01*
X2095000D01*
Y1120000D01*
X2055000D01*
Y1020000D02*
Y1060000D01*
X2095000D01*
Y1020000D01*
X2055000D01*
Y920000D02*
Y960000D01*
X2095000D01*
Y920000D01*
X2055000D01*
Y820000D02*
Y860000D01*
X2095000D01*
Y820000D01*
X2055000D01*
X2900000Y3280000D02*
Y3320000D01*
X2940000D01*
Y3280000D01*
X2900000D01*
Y3180000D02*
Y3220000D01*
X2940000D01*
Y3180000D01*
X2900000D01*
Y3080000D02*
Y3120000D01*
X2940000D01*
Y3080000D01*
X2900000D01*
Y2980000D02*
Y3020000D01*
X2940000D01*
Y2980000D01*
X2900000D01*
Y3380000D02*
Y3420000D01*
X2940000D01*
Y3380000D01*
X2900000D01*
Y3480000D02*
Y3520000D01*
X2940000D01*
Y3480000D01*
X2900000D01*
Y3580000D02*
Y3620000D01*
X2940000D01*
Y3580000D01*
X2900000D01*
X2370000Y3030000D02*
X2380000Y3040000D01*
X2390000D01*
X2380000Y3050000D01*
X2390000Y3060000D01*
X2380000D01*
X2370000Y3070000D01*
X2360000Y3060000D01*
X2350000D01*
X2360000Y3050000D01*
X2350000Y3040000D01*
X2360000D01*
X2370000Y3030000D01*
Y3530000D02*
X2380000Y3540000D01*
X2390000D01*
X2380000Y3550000D01*
X2390000Y3560000D01*
X2380000D01*
X2370000Y3570000D01*
X2360000Y3560000D01*
X2350000D01*
X2360000Y3550000D01*
X2350000Y3540000D01*
X2360000D01*
X2370000Y3530000D01*
X1090000Y3030000D02*
Y3070000D01*
X1130000D01*
Y3030000D01*
X1090000D01*
Y2830000D02*
Y2870000D01*
X1130000D01*
Y2830000D01*
X1090000D01*
Y2730000D02*
Y2770000D01*
X1130000D01*
Y2730000D01*
X1090000D01*
Y2620000D02*
Y2660000D01*
X1130000D01*
Y2620000D01*
X1090000D01*
Y2520000D02*
Y2560000D01*
X1130000D01*
Y2520000D01*
X1090000D01*
Y2420000D02*
Y2460000D01*
X1130000D01*
Y2420000D01*
X1090000D01*
Y2320000D02*
Y2360000D01*
X1130000D01*
Y2320000D01*
X1090000D01*
Y2930000D02*
Y2970000D01*
X1130000D01*
Y2930000D01*
X1090000D01*
X1715000Y3030000D02*
Y3070000D01*
X1755000D01*
Y3030000D01*
X1715000D01*
Y2830000D02*
Y2870000D01*
X1755000D01*
Y2830000D01*
X1715000D01*
Y2730000D02*
Y2770000D01*
X1755000D01*
Y2730000D01*
X1715000D01*
Y2620000D02*
Y2660000D01*
X1755000D01*
Y2620000D01*
X1715000D01*
Y2520000D02*
Y2560000D01*
X1755000D01*
Y2520000D01*
X1715000D01*
Y2420000D02*
Y2460000D01*
X1755000D01*
Y2420000D01*
X1715000D01*
Y2320000D02*
Y2360000D01*
X1755000D01*
Y2320000D01*
X1715000D01*
Y2930000D02*
Y2970000D01*
X1755000D01*
Y2930000D01*
X1715000D01*
X365000Y1140000D02*
Y1180000D01*
X405000D01*
Y1140000D01*
X365000D01*
X465000D02*
Y1180000D01*
X505000D01*
Y1140000D01*
X465000D01*
X565000D02*
Y1180000D01*
X605000D01*
Y1140000D01*
X565000D01*
X665000D02*
Y1180000D01*
X705000D01*
Y1140000D01*
X665000D01*
X765000D02*
Y1180000D01*
X805000D01*
Y1140000D01*
X765000D01*
X865000D02*
Y1180000D01*
X905000D01*
Y1140000D01*
X865000D01*
X225000Y660000D02*
X235000Y680000D01*
X225000Y700000D01*
X245000Y690000D01*
X265000Y700000D01*
X255000Y680000D01*
X265000Y660000D01*
X245000Y670000D01*
X225000Y660000D01*
X230000Y440000D02*
X240000Y460000D01*
X230000Y480000D01*
X250000Y470000D01*
X270000Y480000D01*
X260000Y460000D01*
X270000Y440000D01*
X250000Y450000D01*
X230000Y440000D01*
X565000Y660000D02*
X575000Y680000D01*
X565000Y700000D01*
X585000Y690000D01*
X605000Y700000D01*
X595000Y680000D01*
X605000Y660000D01*
X585000Y670000D01*
X565000Y660000D01*
X570000Y440000D02*
X580000Y460000D01*
X570000Y480000D01*
X590000Y470000D01*
X610000Y480000D01*
X600000Y460000D01*
X610000Y440000D01*
X590000Y450000D01*
X570000Y440000D01*
X925000Y660000D02*
X935000Y680000D01*
X925000Y700000D01*
X945000Y690000D01*
X965000Y700000D01*
X955000Y680000D01*
X965000Y660000D01*
X945000Y670000D01*
X925000Y660000D01*
X930000Y440000D02*
X940000Y460000D01*
X930000Y480000D01*
X950000Y470000D01*
X970000Y480000D01*
X960000Y460000D01*
X970000Y440000D01*
X950000Y450000D01*
X930000Y440000D01*
X1285000Y660000D02*
X1295000Y680000D01*
X1285000Y700000D01*
X1305000Y690000D01*
X1325000Y700000D01*
X1315000Y680000D01*
X1325000Y660000D01*
X1305000Y670000D01*
X1285000Y660000D01*
X1290000Y440000D02*
X1300000Y460000D01*
X1290000Y480000D01*
X1310000Y470000D01*
X1330000Y480000D01*
X1320000Y460000D01*
X1330000Y440000D01*
X1310000Y450000D01*
X1290000Y440000D01*
X1635000Y660000D02*
X1645000Y680000D01*
X1635000Y700000D01*
X1655000Y690000D01*
X1675000Y700000D01*
X1665000Y680000D01*
X1675000Y660000D01*
X1655000Y670000D01*
X1635000Y660000D01*
X1640000Y440000D02*
X1650000Y460000D01*
X1640000Y480000D01*
X1660000Y470000D01*
X1680000Y480000D01*
X1670000Y460000D01*
X1680000Y440000D01*
X1660000Y450000D01*
X1640000Y440000D01*
X3145000Y2870000D02*
Y2860000D01*
X3165000D01*
Y2870000D01*
X3175000D01*
Y2890000D01*
X3165000D01*
Y2900000D01*
X3145000D01*
Y2890000D01*
X3135000D01*
Y2870000D01*
X3145000D01*
X1665000Y919558D02*
Y909558D01*
X1685000D01*
Y919558D01*
X1695000D01*
Y939558D01*
X1685000D01*
Y949558D01*
X1665000D01*
Y939558D01*
X1655000D01*
Y919558D01*
X1665000D01*
X1410000Y895000D02*
Y885000D01*
X1430000D01*
Y895000D01*
X1440000D01*
Y915000D01*
X1430000D01*
Y925000D01*
X1410000D01*
Y915000D01*
X1400000D01*
Y895000D01*
X1410000D01*
X1605000Y875000D02*
Y865000D01*
X1625000D01*
Y875000D01*
X1635000D01*
Y895000D01*
X1625000D01*
Y905000D01*
X1605000D01*
Y895000D01*
X1595000D01*
Y875000D01*
X1605000D01*
X1485000D02*
Y865000D01*
X1505000D01*
Y875000D01*
X1515000D01*
Y895000D01*
X1505000D01*
Y905000D01*
X1485000D01*
Y895000D01*
X1475000D01*
Y875000D01*
X1485000D01*
X1830000Y1865000D02*
Y1855000D01*
X1850000D01*
Y1865000D01*
X1860000D01*
Y1885000D01*
X1850000D01*
Y1895000D01*
X1830000D01*
Y1885000D01*
X1820000D01*
Y1865000D01*
X1830000D01*
X3520000Y1465000D02*
Y1455000D01*
X3540000D01*
Y1465000D01*
X3550000D01*
Y1485000D01*
X3540000D01*
Y1495000D01*
X3520000D01*
Y1485000D01*
X3510000D01*
Y1465000D01*
X3520000D01*
Y1660000D02*
Y1650000D01*
X3540000D01*
Y1660000D01*
X3550000D01*
Y1680000D01*
X3540000D01*
Y1690000D01*
X3520000D01*
Y1680000D01*
X3510000D01*
Y1660000D01*
X3520000D01*
X130000Y130000D02*
X140000D01*
X150000Y140000D01*
X160000Y130000D01*
X170000D01*
Y140000D01*
X160000Y150000D01*
X170000Y160000D01*
Y170000D01*
X160000D01*
X150000Y160000D01*
X140000Y170000D01*
X130000D01*
Y160000D01*
X140000Y150000D01*
X130000Y140000D01*
Y130000D01*
Y3830000D02*
X140000D01*
X150000Y3840000D01*
X160000Y3830000D01*
X170000D01*
Y3840000D01*
X160000Y3850000D01*
X170000Y3860000D01*
Y3870000D01*
X160000D01*
X150000Y3860000D01*
X140000Y3870000D01*
X130000D01*
Y3860000D01*
X140000Y3850000D01*
X130000Y3840000D01*
Y3830000D01*
X3830000D02*
X3840000D01*
X3850000Y3840000D01*
X3860000Y3830000D01*
X3870000D01*
Y3840000D01*
X3860000Y3850000D01*
X3870000Y3860000D01*
Y3870000D01*
X3860000D01*
X3850000Y3860000D01*
X3840000Y3870000D01*
X3830000D01*
Y3860000D01*
X3840000Y3850000D01*
X3830000Y3840000D01*
Y3830000D01*
Y130000D02*
X3840000D01*
X3850000Y140000D01*
X3860000Y130000D01*
X3870000D01*
Y140000D01*
X3860000Y150000D01*
X3870000Y160000D01*
Y170000D01*
X3860000D01*
X3850000Y160000D01*
X3840000Y170000D01*
X3830000D01*
Y160000D01*
X3840000Y150000D01*
X3830000Y140000D01*
Y130000D01*
D53*
X3435000Y3000000D02*
G03*
X3435000Y3000000I-20000J0D01*
G01*
X3570000D02*
G03*
X3570000Y3000000I-20000J0D01*
G01*
X3710000D02*
G03*
X3710000Y3000000I-20000J0D01*
G01*
X3845000D02*
G03*
X3845000Y3000000I-20000J0D01*
G01*
%TF.MD5,e33a5d1e64fc29915f634704d6104c1f*%
M02*
