%TF.GenerationSoftware,Altium Limited,Altium Designer,18.1.9 (240)*%
G04 Layer_Color=255*
%FSLAX26Y26*%
%MOIN*%
%TF.FileFunction,Pads,Top*%
%TF.Part,Single*%
G01*
G75*
%TA.AperFunction,SMDPad,CuDef*%
%ADD10R,0.047000X0.100000*%
%ADD11R,0.066929X0.043307*%
%TA.AperFunction,ComponentPad*%
%ADD14C,0.070000*%
%ADD15R,0.070000X0.070000*%
%ADD16C,0.080000*%
%ADD17C,0.060000*%
%ADD18R,0.060000X0.060000*%
%ADD19C,0.100000*%
%ADD20R,0.090000X0.250000*%
%ADD21R,0.250000X0.090000*%
D10*
X1413000Y1530000D02*
D03*
X1315000D02*
D03*
X1217000D02*
D03*
Y1765000D02*
D03*
X1315000D02*
D03*
X1413000D02*
D03*
D11*
X1415000Y1343150D02*
D03*
Y1236850D02*
D03*
D14*
X855000Y3040000D02*
D03*
X755000D02*
D03*
X455000D02*
D03*
X555000D02*
D03*
X655000D02*
D03*
X3415000Y3200000D02*
D03*
Y3100000D02*
D03*
X3550000D02*
D03*
Y3200000D02*
D03*
X3690000D02*
D03*
Y3100000D02*
D03*
X3825000D02*
D03*
Y3200000D02*
D03*
X2920000Y3300000D02*
D03*
Y3200000D02*
D03*
Y3100000D02*
D03*
Y3000000D02*
D03*
Y3400000D02*
D03*
Y3500000D02*
D03*
Y3600000D02*
D03*
X1110000Y3050000D02*
D03*
Y2850000D02*
D03*
Y2750000D02*
D03*
Y2640000D02*
D03*
Y2540000D02*
D03*
Y2440000D02*
D03*
Y2340000D02*
D03*
Y2950000D02*
D03*
X1735000Y3050000D02*
D03*
Y2850000D02*
D03*
Y2750000D02*
D03*
Y2640000D02*
D03*
Y2540000D02*
D03*
Y2440000D02*
D03*
Y2340000D02*
D03*
Y2950000D02*
D03*
X385000Y1160000D02*
D03*
X485000D02*
D03*
X585000D02*
D03*
X685000D02*
D03*
X785000D02*
D03*
X885000D02*
D03*
D15*
X3415000Y3000000D02*
D03*
X3550000D02*
D03*
X3690000D02*
D03*
X3825000D02*
D03*
D16*
X1555000Y1245000D02*
D03*
Y1345000D02*
D03*
Y1145000D02*
D03*
D17*
X3775000Y840000D02*
D03*
Y940000D02*
D03*
Y1040000D02*
D03*
Y1140000D02*
D03*
Y1240000D02*
D03*
Y1340000D02*
D03*
Y1440000D02*
D03*
Y1540000D02*
D03*
Y1640000D02*
D03*
Y1740000D02*
D03*
X3675000Y840000D02*
D03*
Y940000D02*
D03*
Y1040000D02*
D03*
Y1140000D02*
D03*
Y1240000D02*
D03*
Y1340000D02*
D03*
Y1440000D02*
D03*
Y1540000D02*
D03*
Y1640000D02*
D03*
X1975000D02*
D03*
Y1540000D02*
D03*
Y1440000D02*
D03*
Y1340000D02*
D03*
Y1240000D02*
D03*
Y1140000D02*
D03*
Y1040000D02*
D03*
Y940000D02*
D03*
Y840000D02*
D03*
X2075000Y1740000D02*
D03*
Y1640000D02*
D03*
Y1540000D02*
D03*
Y1440000D02*
D03*
Y1340000D02*
D03*
Y1240000D02*
D03*
Y1140000D02*
D03*
Y1040000D02*
D03*
Y940000D02*
D03*
Y840000D02*
D03*
D18*
X3675000Y1740000D02*
D03*
X1975000D02*
D03*
D19*
X2370000Y3050000D02*
D03*
Y3550000D02*
D03*
D20*
X245000Y680000D02*
D03*
X585000D02*
D03*
X945000D02*
D03*
X1305000D02*
D03*
X1655000D02*
D03*
D21*
X250000Y460000D02*
D03*
X590000D02*
D03*
X950000D02*
D03*
X1310000D02*
D03*
X1660000D02*
D03*
%TF.MD5,64e32cd43266b4eefcbfd7a73dbb62b2*%
M02*
