%TF.GenerationSoftware,Altium Limited,Altium Designer,18.1.9 (240)*%
G04 Layer_Color=0*
%FSLAX26Y26*%
%MOIN*%
%TF.FileFunction,Plated,1,2,PTH,Drill*%
%TF.Part,Single*%
G01*
G75*
%TA.AperFunction,ComponentDrill*%
%ADD42C,0.042000*%
%ADD43R,0.042000X0.042000*%
%ADD44C,0.050000*%
%ADD45C,0.042000*%
%ADD46C,0.080000*%
%ADD47R,0.060000X0.206000*%
%ADD48R,0.206000X0.060000*%
%TA.AperFunction,ViaDrill,NotFilled*%
%ADD49C,0.028000*%
%ADD50C,0.126000*%
D42*
X855000Y3040000D02*
D03*
X755000D02*
D03*
X455000D02*
D03*
X555000D02*
D03*
X655000D02*
D03*
X3415000Y3200000D02*
D03*
Y3100000D02*
D03*
X3550000D02*
D03*
Y3200000D02*
D03*
X3690000D02*
D03*
Y3100000D02*
D03*
X3825000D02*
D03*
Y3200000D02*
D03*
X3775000Y840000D02*
D03*
Y940000D02*
D03*
Y1040000D02*
D03*
Y1140000D02*
D03*
Y1240000D02*
D03*
Y1340000D02*
D03*
Y1440000D02*
D03*
Y1540000D02*
D03*
Y1640000D02*
D03*
Y1740000D02*
D03*
X3675000Y840000D02*
D03*
Y940000D02*
D03*
Y1040000D02*
D03*
Y1140000D02*
D03*
Y1240000D02*
D03*
Y1340000D02*
D03*
Y1440000D02*
D03*
Y1540000D02*
D03*
Y1640000D02*
D03*
Y1740000D02*
D03*
X1975000D02*
D03*
Y1640000D02*
D03*
Y1540000D02*
D03*
Y1440000D02*
D03*
Y1340000D02*
D03*
Y1240000D02*
D03*
Y1140000D02*
D03*
Y1040000D02*
D03*
Y940000D02*
D03*
Y840000D02*
D03*
X2075000Y1740000D02*
D03*
Y1640000D02*
D03*
Y1540000D02*
D03*
Y1440000D02*
D03*
Y1340000D02*
D03*
Y1240000D02*
D03*
Y1140000D02*
D03*
Y1040000D02*
D03*
Y940000D02*
D03*
Y840000D02*
D03*
X1110000Y3050000D02*
D03*
Y2850000D02*
D03*
Y2750000D02*
D03*
Y2640000D02*
D03*
Y2540000D02*
D03*
Y2440000D02*
D03*
Y2340000D02*
D03*
Y2950000D02*
D03*
X1735000Y3050000D02*
D03*
Y2850000D02*
D03*
Y2750000D02*
D03*
Y2640000D02*
D03*
Y2540000D02*
D03*
Y2440000D02*
D03*
Y2340000D02*
D03*
Y2950000D02*
D03*
X385000Y1160000D02*
D03*
X485000D02*
D03*
X585000D02*
D03*
X685000D02*
D03*
X785000D02*
D03*
X885000D02*
D03*
D43*
X3415000Y3000000D02*
D03*
X3550000D02*
D03*
X3690000D02*
D03*
X3825000D02*
D03*
D44*
X1555000Y1245000D02*
D03*
Y1345000D02*
D03*
Y1145000D02*
D03*
D45*
X2920000Y3300000D02*
D03*
Y3200000D02*
D03*
Y3100000D02*
D03*
Y3000000D02*
D03*
Y3400000D02*
D03*
Y3500000D02*
D03*
Y3600000D02*
D03*
D46*
X2370000Y3050000D02*
D03*
Y3550000D02*
D03*
D47*
X245000Y680000D02*
D03*
X585000D02*
D03*
X945000D02*
D03*
X1305000D02*
D03*
X1655000D02*
D03*
D48*
X250000Y460000D02*
D03*
X590000D02*
D03*
X950000D02*
D03*
X1310000D02*
D03*
X1660000D02*
D03*
D49*
X3155000Y2880000D02*
D03*
X1675000Y929558D02*
D03*
X1420000Y905000D02*
D03*
X1615000Y885000D02*
D03*
X1495000D02*
D03*
X1840000Y1875000D02*
D03*
X3530000Y1475000D02*
D03*
Y1670000D02*
D03*
D50*
X150000Y150000D02*
D03*
Y3850000D02*
D03*
X3850000D02*
D03*
Y150000D02*
D03*
%TF.MD5,e52943eaef05c64d63f6237c0c06f5a6*%
M02*
