G04*
G04 #@! TF.GenerationSoftware,Altium Limited,Altium Designer,18.1.9 (240)*
G04*
G04 Layer_Color=2752767*
%FSLAX25Y25*%
%MOIN*%
G70*
G01*
G75*
%ADD40C,0.00200*%
%ADD41C,0.00267*%
D40*
X84700Y303200D02*
Y304800D01*
X86300D01*
Y303200D01*
X84700D01*
X74700D02*
Y304800D01*
X76300D01*
Y303200D01*
X74700D01*
X44700D02*
Y304800D01*
X46300D01*
Y303200D01*
X44700D01*
X54700D02*
Y304800D01*
X56300D01*
Y303200D01*
X54700D01*
X64700D02*
Y304800D01*
X66300D01*
Y303200D01*
X64700D01*
X340700Y319200D02*
Y320800D01*
X342300D01*
Y319200D01*
X340700D01*
Y309200D02*
Y310800D01*
X342300D01*
Y309200D01*
X340700D01*
X354200D02*
Y310800D01*
X355800D01*
Y309200D01*
X354200D01*
Y319200D02*
Y320800D01*
X355800D01*
Y319200D01*
X354200D01*
X368200D02*
Y320800D01*
X369800D01*
Y319200D01*
X368200D01*
Y309200D02*
Y310800D01*
X369800D01*
Y309200D01*
X368200D01*
X381700D02*
Y310800D01*
X383300D01*
Y309200D01*
X381700D01*
Y319200D02*
Y320800D01*
X383300D01*
Y319200D01*
X381700D01*
X155500Y123700D02*
X154700Y125300D01*
X156300D01*
X155500Y123700D01*
Y133700D02*
X154700Y135300D01*
X156300D01*
X155500Y133700D01*
Y113700D02*
X154700Y115300D01*
X156300D01*
X155500Y113700D01*
X376700Y83200D02*
Y84800D01*
X378300D01*
Y83200D01*
X376700D01*
Y93200D02*
Y94800D01*
X378300D01*
Y93200D01*
X376700D01*
Y103200D02*
Y104800D01*
X378300D01*
Y103200D01*
X376700D01*
Y113200D02*
Y114800D01*
X378300D01*
Y113200D01*
X376700D01*
Y123200D02*
Y124800D01*
X378300D01*
Y123200D01*
X376700D01*
Y133200D02*
Y134800D01*
X378300D01*
Y133200D01*
X376700D01*
Y143200D02*
Y144800D01*
X378300D01*
Y143200D01*
X376700D01*
Y153200D02*
Y154800D01*
X378300D01*
Y153200D01*
X376700D01*
Y163200D02*
Y164800D01*
X378300D01*
Y163200D01*
X376700D01*
Y173200D02*
Y174800D01*
X378300D01*
Y173200D01*
X376700D01*
X366700Y83200D02*
Y84800D01*
X368300D01*
Y83200D01*
X366700D01*
Y93200D02*
Y94800D01*
X368300D01*
Y93200D01*
X366700D01*
Y103200D02*
Y104800D01*
X368300D01*
Y103200D01*
X366700D01*
Y113200D02*
Y114800D01*
X368300D01*
Y113200D01*
X366700D01*
Y123200D02*
Y124800D01*
X368300D01*
Y123200D01*
X366700D01*
Y133200D02*
Y134800D01*
X368300D01*
Y133200D01*
X366700D01*
Y143200D02*
Y144800D01*
X368300D01*
Y143200D01*
X366700D01*
Y153200D02*
Y154800D01*
X368300D01*
Y153200D01*
X366700D01*
Y163200D02*
Y164800D01*
X368300D01*
Y163200D01*
X366700D01*
Y173200D02*
Y174800D01*
X368300D01*
Y173200D01*
X366700D01*
X196700D02*
Y174800D01*
X198300D01*
Y173200D01*
X196700D01*
Y163200D02*
Y164800D01*
X198300D01*
Y163200D01*
X196700D01*
Y153200D02*
Y154800D01*
X198300D01*
Y153200D01*
X196700D01*
Y143200D02*
Y144800D01*
X198300D01*
Y143200D01*
X196700D01*
Y133200D02*
Y134800D01*
X198300D01*
Y133200D01*
X196700D01*
Y123200D02*
Y124800D01*
X198300D01*
Y123200D01*
X196700D01*
Y113200D02*
Y114800D01*
X198300D01*
Y113200D01*
X196700D01*
Y103200D02*
Y104800D01*
X198300D01*
Y103200D01*
X196700D01*
Y93200D02*
Y94800D01*
X198300D01*
Y93200D01*
X196700D01*
Y83200D02*
Y84800D01*
X198300D01*
Y83200D01*
X196700D01*
X206700Y173200D02*
Y174800D01*
X208300D01*
Y173200D01*
X206700D01*
Y163200D02*
Y164800D01*
X208300D01*
Y163200D01*
X206700D01*
Y153200D02*
Y154800D01*
X208300D01*
Y153200D01*
X206700D01*
Y143200D02*
Y144800D01*
X208300D01*
Y143200D01*
X206700D01*
Y133200D02*
Y134800D01*
X208300D01*
Y133200D01*
X206700D01*
Y123200D02*
Y124800D01*
X208300D01*
Y123200D01*
X206700D01*
Y113200D02*
Y114800D01*
X208300D01*
Y113200D01*
X206700D01*
Y103200D02*
Y104800D01*
X208300D01*
Y103200D01*
X206700D01*
Y93200D02*
Y94800D01*
X208300D01*
Y93200D01*
X206700D01*
Y83200D02*
Y84800D01*
X208300D01*
Y83200D01*
X206700D01*
X291200Y329200D02*
Y330800D01*
X292800D01*
Y329200D01*
X291200D01*
Y319200D02*
Y320800D01*
X292800D01*
Y319200D01*
X291200D01*
Y309200D02*
Y310800D01*
X292800D01*
Y309200D01*
X291200D01*
Y299200D02*
Y300800D01*
X292800D01*
Y299200D01*
X291200D01*
Y339200D02*
Y340800D01*
X292800D01*
Y339200D01*
X291200D01*
Y349200D02*
Y350800D01*
X292800D01*
Y349200D01*
X291200D01*
Y359200D02*
Y360800D01*
X292800D01*
Y359200D01*
X291200D01*
X237000Y304200D02*
X237400Y304600D01*
X237800D01*
X237400Y305000D01*
X237800Y305400D01*
X237400D01*
X237000Y305800D01*
X236600Y305400D01*
X236200D01*
X236600Y305000D01*
X236200Y304600D01*
X236600D01*
X237000Y304200D01*
Y354200D02*
X237400Y354600D01*
X237800D01*
X237400Y355000D01*
X237800Y355400D01*
X237400D01*
X237000Y355800D01*
X236600Y355400D01*
X236200D01*
X236600Y355000D01*
X236200Y354600D01*
X236600D01*
X237000Y354200D01*
X110200Y304200D02*
Y305800D01*
X111800D01*
Y304200D01*
X110200D01*
Y284200D02*
Y285800D01*
X111800D01*
Y284200D01*
X110200D01*
Y274200D02*
Y275800D01*
X111800D01*
Y274200D01*
X110200D01*
Y263200D02*
Y264800D01*
X111800D01*
Y263200D01*
X110200D01*
Y253200D02*
Y254800D01*
X111800D01*
Y253200D01*
X110200D01*
Y243200D02*
Y244800D01*
X111800D01*
Y243200D01*
X110200D01*
Y233200D02*
Y234800D01*
X111800D01*
Y233200D01*
X110200D01*
Y294200D02*
Y295800D01*
X111800D01*
Y294200D01*
X110200D01*
X172700Y304200D02*
Y305800D01*
X174300D01*
Y304200D01*
X172700D01*
Y284200D02*
Y285800D01*
X174300D01*
Y284200D01*
X172700D01*
Y274200D02*
Y275800D01*
X174300D01*
Y274200D01*
X172700D01*
Y263200D02*
Y264800D01*
X174300D01*
Y263200D01*
X172700D01*
Y253200D02*
Y254800D01*
X174300D01*
Y253200D01*
X172700D01*
Y243200D02*
Y244800D01*
X174300D01*
Y243200D01*
X172700D01*
Y233200D02*
Y234800D01*
X174300D01*
Y233200D01*
X172700D01*
Y294200D02*
Y295800D01*
X174300D01*
Y294200D01*
X172700D01*
X37700Y115200D02*
Y116800D01*
X39300D01*
Y115200D01*
X37700D01*
X47700D02*
Y116800D01*
X49300D01*
Y115200D01*
X47700D01*
X57700D02*
Y116800D01*
X59300D01*
Y115200D01*
X57700D01*
X67700D02*
Y116800D01*
X69300D01*
Y115200D01*
X67700D01*
X77700D02*
Y116800D01*
X79300D01*
Y115200D01*
X77700D01*
X87700D02*
Y116800D01*
X89300D01*
Y115200D01*
X87700D01*
X23700Y67200D02*
X24100Y68000D01*
X23700Y68800D01*
X24500Y68400D01*
X25300Y68800D01*
X24900Y68000D01*
X25300Y67200D01*
X24500Y67600D01*
X23700Y67200D01*
X24200Y45200D02*
X24600Y46000D01*
X24200Y46800D01*
X25000Y46400D01*
X25800Y46800D01*
X25400Y46000D01*
X25800Y45200D01*
X25000Y45600D01*
X24200Y45200D01*
X57700Y67200D02*
X58100Y68000D01*
X57700Y68800D01*
X58500Y68400D01*
X59300Y68800D01*
X58900Y68000D01*
X59300Y67200D01*
X58500Y67600D01*
X57700Y67200D01*
X58200Y45200D02*
X58600Y46000D01*
X58200Y46800D01*
X59000Y46400D01*
X59800Y46800D01*
X59400Y46000D01*
X59800Y45200D01*
X59000Y45600D01*
X58200Y45200D01*
X93700Y67200D02*
X94100Y68000D01*
X93700Y68800D01*
X94500Y68400D01*
X95300Y68800D01*
X94900Y68000D01*
X95300Y67200D01*
X94500Y67600D01*
X93700Y67200D01*
X94200Y45200D02*
X94600Y46000D01*
X94200Y46800D01*
X95000Y46400D01*
X95800Y46800D01*
X95400Y46000D01*
X95800Y45200D01*
X95000Y45600D01*
X94200Y45200D01*
X129700Y67200D02*
X130100Y68000D01*
X129700Y68800D01*
X130500Y68400D01*
X131300Y68800D01*
X130900Y68000D01*
X131300Y67200D01*
X130500Y67600D01*
X129700Y67200D01*
X130200Y45200D02*
X130600Y46000D01*
X130200Y46800D01*
X131000Y46400D01*
X131800Y46800D01*
X131400Y46000D01*
X131800Y45200D01*
X131000Y45600D01*
X130200Y45200D01*
X164700Y67200D02*
X165100Y68000D01*
X164700Y68800D01*
X165500Y68400D01*
X166300Y68800D01*
X165900Y68000D01*
X166300Y67200D01*
X165500Y67600D01*
X164700Y67200D01*
X165200Y45200D02*
X165600Y46000D01*
X165200Y46800D01*
X166000Y46400D01*
X166800Y46800D01*
X166400Y46000D01*
X166800Y45200D01*
X166000Y45600D01*
X165200Y45200D01*
X315100Y287600D02*
Y287200D01*
X315900D01*
Y287600D01*
X316300D01*
Y288400D01*
X315900D01*
Y288800D01*
X315100D01*
Y288400D01*
X314700D01*
Y287600D01*
X315100D01*
X167100Y92556D02*
Y92156D01*
X167900D01*
Y92556D01*
X168300D01*
Y93356D01*
X167900D01*
Y93756D01*
X167100D01*
Y93356D01*
X166700D01*
Y92556D01*
X167100D01*
X141600Y90100D02*
Y89700D01*
X142400D01*
Y90100D01*
X142800D01*
Y90900D01*
X142400D01*
Y91300D01*
X141600D01*
Y90900D01*
X141200D01*
Y90100D01*
X141600D01*
X161100Y88100D02*
Y87700D01*
X161900D01*
Y88100D01*
X162300D01*
Y88900D01*
X161900D01*
Y89300D01*
X161100D01*
Y88900D01*
X160700D01*
Y88100D01*
X161100D01*
X149100D02*
Y87700D01*
X149900D01*
Y88100D01*
X150300D01*
Y88900D01*
X149900D01*
Y89300D01*
X149100D01*
Y88900D01*
X148700D01*
Y88100D01*
X149100D01*
X183600Y187100D02*
Y186700D01*
X184400D01*
Y187100D01*
X184800D01*
Y187900D01*
X184400D01*
Y188300D01*
X183600D01*
Y187900D01*
X183200D01*
Y187100D01*
X183600D01*
X352600Y147100D02*
Y146700D01*
X353400D01*
Y147100D01*
X353800D01*
Y147900D01*
X353400D01*
Y148300D01*
X352600D01*
Y147900D01*
X352200D01*
Y147100D01*
X352600D01*
Y166600D02*
Y166200D01*
X353400D01*
Y166600D01*
X353800D01*
Y167400D01*
X353400D01*
Y167800D01*
X352600D01*
Y167400D01*
X352200D01*
Y166600D01*
X352600D01*
X14200Y14200D02*
X14600D01*
X15000Y14600D01*
X15400Y14200D01*
X15800D01*
Y14600D01*
X15400Y15000D01*
X15800Y15400D01*
Y15800D01*
X15400D01*
X15000Y15400D01*
X14600Y15800D01*
X14200D01*
Y15400D01*
X14600Y15000D01*
X14200Y14600D01*
Y14200D01*
Y384200D02*
X14600D01*
X15000Y384600D01*
X15400Y384200D01*
X15800D01*
Y384600D01*
X15400Y385000D01*
X15800Y385400D01*
Y385800D01*
X15400D01*
X15000Y385400D01*
X14600Y385800D01*
X14200D01*
Y385400D01*
X14600Y385000D01*
X14200Y384600D01*
Y384200D01*
X384200D02*
X384600D01*
X385000Y384600D01*
X385400Y384200D01*
X385800D01*
Y384600D01*
X385400Y385000D01*
X385800Y385400D01*
Y385800D01*
X385400D01*
X385000Y385400D01*
X384600Y385800D01*
X384200D01*
Y385400D01*
X384600Y385000D01*
X384200Y384600D01*
Y384200D01*
Y14200D02*
X384600D01*
X385000Y14600D01*
X385400Y14200D01*
X385800D01*
Y14600D01*
X385400Y15000D01*
X385800Y15400D01*
Y15800D01*
X385400D01*
X385000Y15400D01*
X384600Y15800D01*
X384200D01*
Y15400D01*
X384600Y15000D01*
X384200Y14600D01*
Y14200D01*
D41*
X342300Y300000D02*
G03*
X342300Y300000I-800J0D01*
G01*
X355800D02*
G03*
X355800Y300000I-800J0D01*
G01*
X369800D02*
G03*
X369800Y300000I-800J0D01*
G01*
X383300D02*
G03*
X383300Y300000I-800J0D01*
G01*
M02*
