%TF.GenerationSoftware,Altium Limited,Altium Designer,18.1.9 (240)*%
G04 Layer_Color=32896*
%FSLAX26Y26*%
%MOIN*%
%TF.FileFunction,Legend,Bot*%
%TF.Part,Single*%
G01*
G75*
%TA.AperFunction,NonConductor*%
%ADD25C,0.007874*%
%ADD26C,0.010000*%
D25*
X1444527Y1169252D02*
Y1200748D01*
X1385472Y1169252D02*
Y1200748D01*
X2004252Y1830473D02*
X2035748D01*
X2004252Y1889528D02*
X2035748D01*
D26*
X1404013Y1345984D02*
X1414010Y1355981D01*
X1434003D01*
X1444000Y1345984D01*
Y1305997D01*
X1434003Y1296000D01*
X1414010D01*
X1404013Y1305997D01*
X1384019Y1345984D02*
X1374023Y1355981D01*
X1354029D01*
X1344032Y1345984D01*
Y1335987D01*
X1354029Y1325990D01*
X1364026D01*
X1354029D01*
X1344032Y1315994D01*
Y1305997D01*
X1354029Y1296000D01*
X1374023D01*
X1384019Y1305997D01*
X2051013Y1978984D02*
X2061010Y1988981D01*
X2081003D01*
X2091000Y1978984D01*
Y1938997D01*
X2081003Y1929000D01*
X2061010D01*
X2051013Y1938997D01*
X1991033Y1929000D02*
X2031020D01*
X1991033Y1968987D01*
Y1978984D01*
X2001029Y1988981D01*
X2021023D01*
X2031020Y1978984D01*
%TF.MD5,1dfd051e6e5a31efd39fa46e4b384bcf*%
M02*
