%TF.GenerationSoftware,Altium Limited,Altium Designer,18.1.9 (240)*%
G04 Layer_Physical_Order=1*
G04 Layer_Color=255*
%FSLAX26Y26*%
%MOIN*%
%TF.FileFunction,Copper,L1,Top,Signal*%
%TF.Part,Single*%
G01*
G75*
%TA.AperFunction,SMDPad,CuDef*%
%ADD10R,0.047000X0.100000*%
%ADD11R,0.066929X0.043307*%
%TA.AperFunction,Conductor*%
%ADD12C,0.010000*%
%ADD13C,0.030000*%
%TA.AperFunction,ComponentPad*%
%ADD14C,0.070000*%
%ADD15R,0.070000X0.070000*%
%ADD16C,0.080000*%
%ADD17C,0.060000*%
%ADD18R,0.060000X0.060000*%
%ADD19C,0.100000*%
%ADD20R,0.090000X0.250000*%
%ADD21R,0.250000X0.090000*%
%TA.AperFunction,ViaPad*%
%ADD22C,0.050000*%
%ADD23C,0.240000*%
G36*
X1815000Y290000D02*
X95000D01*
Y525000D01*
X105000Y535000D01*
X1548952D01*
X1564333Y519619D01*
X1562419Y515000D01*
X1525000D01*
Y505000D01*
X1660000D01*
X1795000D01*
Y515000D01*
X1641048D01*
X1625667Y530381D01*
X1627581Y535000D01*
X1815000D01*
Y290000D01*
D02*
G37*
%LPC*%
G36*
X1085000Y515000D02*
X995000D01*
Y505000D01*
X1085000D01*
Y515000D01*
D02*
G37*
G36*
X1445000D02*
X1355000D01*
Y505000D01*
X1445000D01*
Y515000D01*
D02*
G37*
G36*
X725000D02*
X635000D01*
Y505000D01*
X725000D01*
Y515000D01*
D02*
G37*
G36*
X385000D02*
X295000D01*
Y505000D01*
X385000D01*
Y515000D01*
D02*
G37*
G36*
X1265000D02*
X1175000D01*
Y505000D01*
X1265000D01*
Y515000D01*
D02*
G37*
G36*
X905000D02*
X815000D01*
Y505000D01*
X905000D01*
Y515000D01*
D02*
G37*
G36*
X545000D02*
X455000D01*
Y505000D01*
X545000D01*
Y515000D01*
D02*
G37*
G36*
X205000D02*
X115000D01*
Y505000D01*
X205000D01*
Y515000D01*
D02*
G37*
G36*
X1795000Y415000D02*
X1705000D01*
Y405000D01*
X1795000D01*
Y415000D01*
D02*
G37*
G36*
X1615000D02*
X1525000D01*
Y405000D01*
X1615000D01*
Y415000D01*
D02*
G37*
G36*
X1445000D02*
X1355000D01*
Y405000D01*
X1445000D01*
Y415000D01*
D02*
G37*
G36*
X1265000D02*
X1175000D01*
Y405000D01*
X1265000D01*
Y415000D01*
D02*
G37*
G36*
X1085000D02*
X995000D01*
Y405000D01*
X1085000D01*
Y415000D01*
D02*
G37*
G36*
X905000D02*
X815000D01*
Y405000D01*
X905000D01*
Y415000D01*
D02*
G37*
G36*
X725000D02*
X635000D01*
Y405000D01*
X725000D01*
Y415000D01*
D02*
G37*
G36*
X545000D02*
X455000D01*
Y405000D01*
X545000D01*
Y415000D01*
D02*
G37*
G36*
X385000D02*
X295000D01*
Y405000D01*
X385000D01*
Y415000D01*
D02*
G37*
G36*
X205000D02*
X115000D01*
Y405000D01*
X205000D01*
Y415000D01*
D02*
G37*
%LPD*%
D10*
X1413000Y1530000D02*
D03*
X1315000D02*
D03*
X1217000D02*
D03*
Y1765000D02*
D03*
X1315000D02*
D03*
X1413000D02*
D03*
D11*
X1415000Y1343150D02*
D03*
Y1236850D02*
D03*
D12*
X1546850D02*
X1555000Y1245000D01*
X1415000Y1236850D02*
X1546850D01*
X1415000D02*
X1423150Y1245000D01*
X1840000Y1875000D02*
X1855000Y1860000D01*
X2018640D01*
X2108640Y1770000D01*
X2287574D01*
X3110000Y2592426D01*
Y2810000D01*
X2920000Y3000000D02*
X3110000Y2810000D01*
X2145000Y1540000D02*
X3200000Y2595000D01*
X2075000Y1440000D02*
X3220000Y2585000D01*
X2075000Y1540000D02*
X2145000D01*
X3200000Y2595000D02*
Y3191716D01*
X3220000Y2585000D02*
Y3200000D01*
X3545000Y1240000D02*
X3675000D01*
X3520000Y1215000D02*
X3545000Y1240000D01*
X3520000Y988284D02*
Y1215000D01*
X3256716Y725000D02*
X3520000Y988284D01*
X1879558Y725000D02*
X3256716D01*
X1675000Y929558D02*
X1879558Y725000D01*
X2145000Y910000D02*
Y1480000D01*
X2075000Y840000D02*
X2145000Y910000D01*
X1068284Y905000D02*
X1420000D01*
X785000Y1160000D02*
X1080000Y865000D01*
X1436569D01*
X1456569Y885000D02*
X1495000D01*
X1436569Y865000D02*
X1456569Y885000D01*
X985000Y988284D02*
X1068284Y905000D01*
X985000Y988284D02*
Y1130711D01*
X905711Y1210000D02*
X985000Y1130711D01*
X764289Y1210000D02*
X905711D01*
X735000Y1180711D02*
X764289Y1210000D01*
X735000Y1160000D02*
Y1180711D01*
X685000Y1160000D02*
X735000D01*
X1615000Y885000D02*
X1690000D01*
X1870000Y705000D01*
X3565000Y1140000D02*
X3675000D01*
X3540000Y1115000D02*
X3565000Y1140000D01*
X3540000Y980000D02*
Y1115000D01*
X3265000Y705000D02*
X3540000Y980000D01*
X1870000Y705000D02*
X3265000D01*
X2145000Y1480000D02*
X3240000Y2575000D01*
Y2930000D01*
X3091716Y3300000D02*
X3200000Y3191716D01*
X3240000Y2930000D02*
X3310000Y3000000D01*
X3415000D01*
X2920000Y3300000D02*
X3091716D01*
X2920000Y3500000D02*
X3220000Y3200000D01*
X1735000Y2950000D02*
X1830000Y3045000D01*
Y3116716D01*
X2178284Y3465000D01*
X2405208D01*
X2420208Y3480000D01*
X2740000D01*
X2920000Y3300000D01*
X2411924Y3500000D02*
X2920000D01*
X2396924Y3485000D02*
X2411924Y3500000D01*
X2170000Y3485000D02*
X2396924D01*
X1735000Y3050000D02*
X2170000Y3485000D01*
X505000Y2990000D02*
X555000Y3040000D01*
X425000Y2990000D02*
X505000D01*
X405000Y3010000D02*
X425000Y2990000D01*
X405000Y3010000D02*
Y3060711D01*
X455000Y3040000D02*
X505000D01*
Y3060711D02*
X544289Y3100000D01*
X505000Y3040000D02*
Y3060711D01*
X405000D02*
X464289Y3120000D01*
X1168284D01*
X1318284Y2970000D01*
X544289Y3100000D02*
X1160000D01*
X1318284Y2970000D02*
X1655000D01*
X1735000Y3050000D01*
X1310000Y2950000D02*
X1735000D01*
X1160000Y3100000D02*
X1310000Y2950000D01*
X1675000Y1875000D02*
X1840000D01*
X1110000Y2440000D02*
X1675000Y1875000D01*
X3530000Y1475000D02*
X3575000Y1520000D01*
X3580000D01*
X3530000Y1670000D02*
X3560000Y1700000D01*
Y1846568D01*
X3785000Y2071568D01*
Y2801716D01*
X3691716Y2895000D02*
X3785000Y2801716D01*
X3570000Y2895000D02*
X3691716D01*
X3550000Y2915000D02*
X3570000Y2895000D01*
X3550000Y2915000D02*
Y3000000D01*
X3580000Y1520000D02*
Y1838284D01*
X3805000Y2063284D01*
Y2810000D01*
X3700000Y2915000D02*
X3805000Y2810000D01*
X3600000Y1830000D02*
X3825000Y2055000D01*
Y3000000D01*
X3700000Y2915000D02*
Y2990000D01*
X3690000Y3000000D02*
X3700000Y2990000D01*
X3600000Y1415000D02*
X3675000Y1340000D01*
X3600000Y1415000D02*
Y1830000D01*
X485000Y1160000D02*
Y2320000D01*
X755000Y2590000D01*
Y2770000D01*
X1085000Y2440000D02*
X1110000D01*
X755000Y2770000D02*
X1085000Y2440000D01*
X755000Y2770000D02*
Y3040000D01*
D13*
X1555000Y565000D02*
Y1145000D01*
Y1345000D02*
Y1520000D01*
X1315000Y1590000D02*
Y1765000D01*
Y1530000D02*
Y1590000D01*
X1370000Y1645000D01*
X1430000D01*
X1555000Y1520000D01*
X1635000Y1840000D02*
X1645000Y1830000D01*
X1281145Y1840000D02*
X1635000D01*
X1266500Y1825355D02*
X1281145Y1840000D01*
X1266500Y1765000D02*
Y1825355D01*
X1217000Y1765000D02*
X1266500D01*
X1217000Y1530000D02*
Y1765000D01*
X1338669Y1343150D02*
X1415000D01*
X1266500Y1415318D02*
X1338669Y1343150D01*
X1266500Y1415318D02*
Y1480500D01*
X1217000Y1530000D02*
X1266500Y1480500D01*
X2075000Y1740000D02*
X2300000D01*
X3155000Y2595000D01*
Y2880000D01*
X1555000Y565000D02*
X1660000Y460000D01*
X1865711Y1830000D02*
X1985000D01*
X1860711Y1825000D02*
X1865711Y1830000D01*
X1819289Y1825000D02*
X1860711D01*
X1814289Y1830000D02*
X1819289Y1825000D01*
X1645000Y1830000D02*
X1814289D01*
X1985000D02*
X2075000Y1740000D01*
X3690000Y3100000D02*
X3825000D01*
X3550000D02*
X3690000D01*
X3415000D02*
X3550000D01*
D14*
X855000Y3040000D02*
D03*
X755000D02*
D03*
X455000D02*
D03*
X555000D02*
D03*
X655000D02*
D03*
X3415000Y3200000D02*
D03*
Y3100000D02*
D03*
X3550000D02*
D03*
Y3200000D02*
D03*
X3690000D02*
D03*
Y3100000D02*
D03*
X3825000D02*
D03*
Y3200000D02*
D03*
X2920000Y3300000D02*
D03*
Y3200000D02*
D03*
Y3100000D02*
D03*
Y3000000D02*
D03*
Y3400000D02*
D03*
Y3500000D02*
D03*
Y3600000D02*
D03*
X1110000Y3050000D02*
D03*
Y2850000D02*
D03*
Y2750000D02*
D03*
Y2640000D02*
D03*
Y2540000D02*
D03*
Y2440000D02*
D03*
Y2340000D02*
D03*
Y2950000D02*
D03*
X1735000Y3050000D02*
D03*
Y2850000D02*
D03*
Y2750000D02*
D03*
Y2640000D02*
D03*
Y2540000D02*
D03*
Y2440000D02*
D03*
Y2340000D02*
D03*
Y2950000D02*
D03*
X385000Y1160000D02*
D03*
X485000D02*
D03*
X585000D02*
D03*
X685000D02*
D03*
X785000D02*
D03*
X885000D02*
D03*
D15*
X3415000Y3000000D02*
D03*
X3550000D02*
D03*
X3690000D02*
D03*
X3825000D02*
D03*
D16*
X1555000Y1245000D02*
D03*
Y1345000D02*
D03*
Y1145000D02*
D03*
D17*
X3775000Y840000D02*
D03*
Y940000D02*
D03*
Y1040000D02*
D03*
Y1140000D02*
D03*
Y1240000D02*
D03*
Y1340000D02*
D03*
Y1440000D02*
D03*
Y1540000D02*
D03*
Y1640000D02*
D03*
Y1740000D02*
D03*
X3675000Y840000D02*
D03*
Y940000D02*
D03*
Y1040000D02*
D03*
Y1140000D02*
D03*
Y1240000D02*
D03*
Y1340000D02*
D03*
Y1440000D02*
D03*
Y1540000D02*
D03*
Y1640000D02*
D03*
X1975000D02*
D03*
Y1540000D02*
D03*
Y1440000D02*
D03*
Y1340000D02*
D03*
Y1240000D02*
D03*
Y1140000D02*
D03*
Y1040000D02*
D03*
Y940000D02*
D03*
Y840000D02*
D03*
X2075000Y1740000D02*
D03*
Y1640000D02*
D03*
Y1540000D02*
D03*
Y1440000D02*
D03*
Y1340000D02*
D03*
Y1240000D02*
D03*
Y1140000D02*
D03*
Y1040000D02*
D03*
Y940000D02*
D03*
Y840000D02*
D03*
D18*
X3675000Y1740000D02*
D03*
X1975000D02*
D03*
D19*
X2370000Y3050000D02*
D03*
Y3550000D02*
D03*
D20*
X245000Y680000D02*
D03*
X585000D02*
D03*
X945000D02*
D03*
X1305000D02*
D03*
X1655000D02*
D03*
D21*
X250000Y460000D02*
D03*
X590000D02*
D03*
X950000D02*
D03*
X1310000D02*
D03*
X1660000D02*
D03*
D22*
X3155000Y2880000D02*
D03*
X1675000Y929558D02*
D03*
X1420000Y905000D02*
D03*
X1615000Y885000D02*
D03*
X1495000D02*
D03*
X1840000Y1875000D02*
D03*
X3530000Y1475000D02*
D03*
Y1670000D02*
D03*
D23*
X150000Y150000D02*
D03*
Y3850000D02*
D03*
X3850000D02*
D03*
Y150000D02*
D03*
%TF.MD5,b8d3170343e99dc4098249b6263460f4*%
M02*
