G04*
G04 #@! TF.GenerationSoftware,Altium Limited,Altium Designer,18.1.9 (240)*
G04*
G04 Layer_Physical_Order=1*
G04 Layer_Color=255*
%FSLAX25Y25*%
%MOIN*%
G70*
G01*
G75*
%ADD10C,0.01000*%
%ADD12R,0.04700X0.10000*%
%ADD13R,0.06693X0.04331*%
%ADD26C,0.03000*%
%ADD27C,0.07000*%
%ADD28R,0.07000X0.07000*%
%ADD29C,0.08000*%
%ADD30C,0.06000*%
%ADD31R,0.06000X0.06000*%
%ADD32C,0.10000*%
%ADD33R,0.09000X0.25000*%
%ADD34R,0.25000X0.09000*%
%ADD35C,0.05000*%
%ADD36C,0.24000*%
G36*
X181500Y29000D02*
X9500D01*
Y52500D01*
X10500Y53500D01*
X154895D01*
X156433Y51962D01*
X156242Y51500D01*
X152500D01*
Y50500D01*
X166000D01*
X179500D01*
Y51500D01*
X164105D01*
X162567Y53038D01*
X162758Y53500D01*
X181500D01*
Y29000D01*
D02*
G37*
%LPC*%
G36*
X108500Y51500D02*
X99500D01*
Y50500D01*
X108500D01*
Y51500D01*
D02*
G37*
G36*
X144500D02*
X135500D01*
Y50500D01*
X144500D01*
Y51500D01*
D02*
G37*
G36*
X72500D02*
X63500D01*
Y50500D01*
X72500D01*
Y51500D01*
D02*
G37*
G36*
X38500D02*
X29500D01*
Y50500D01*
X38500D01*
Y51500D01*
D02*
G37*
G36*
X126500D02*
X117500D01*
Y50500D01*
X126500D01*
Y51500D01*
D02*
G37*
G36*
X90500D02*
X81500D01*
Y50500D01*
X90500D01*
Y51500D01*
D02*
G37*
G36*
X54500D02*
X45500D01*
Y50500D01*
X54500D01*
Y51500D01*
D02*
G37*
G36*
X20500D02*
X11500D01*
Y50500D01*
X20500D01*
Y51500D01*
D02*
G37*
G36*
X179500Y41500D02*
X170500D01*
Y40500D01*
X179500D01*
Y41500D01*
D02*
G37*
G36*
X161500D02*
X152500D01*
Y40500D01*
X161500D01*
Y41500D01*
D02*
G37*
G36*
X144500D02*
X135500D01*
Y40500D01*
X144500D01*
Y41500D01*
D02*
G37*
G36*
X126500D02*
X117500D01*
Y40500D01*
X126500D01*
Y41500D01*
D02*
G37*
G36*
X108500D02*
X99500D01*
Y40500D01*
X108500D01*
Y41500D01*
D02*
G37*
G36*
X90500D02*
X81500D01*
Y40500D01*
X90500D01*
Y41500D01*
D02*
G37*
G36*
X72500D02*
X63500D01*
Y40500D01*
X72500D01*
Y41500D01*
D02*
G37*
G36*
X54500D02*
X45500D01*
Y40500D01*
X54500D01*
Y41500D01*
D02*
G37*
G36*
X38500D02*
X29500D01*
Y40500D01*
X38500D01*
Y41500D01*
D02*
G37*
G36*
X20500D02*
X11500D01*
Y40500D01*
X20500D01*
Y41500D01*
D02*
G37*
%LPD*%
D10*
X154685Y123685D02*
X155500Y124500D01*
X141500Y123685D02*
X154685D01*
X141500D02*
X142315Y124500D01*
X184000Y187500D02*
X185500Y186000D01*
X201864D01*
X210864Y177000D01*
X228757D01*
X311000Y259243D01*
Y281000D01*
X292000Y300000D02*
X311000Y281000D01*
X214500Y154000D02*
X320000Y259500D01*
X207500Y144000D02*
X322000Y258500D01*
X207500Y154000D02*
X214500D01*
X320000Y259500D02*
Y319172D01*
X322000Y258500D02*
Y320000D01*
X354500Y124000D02*
X367500D01*
X352000Y121500D02*
X354500Y124000D01*
X352000Y98828D02*
Y121500D01*
X325672Y72500D02*
X352000Y98828D01*
X187956Y72500D02*
X325672D01*
X167500Y92956D02*
X187956Y72500D01*
X214500Y91000D02*
Y148000D01*
X207500Y84000D02*
X214500Y91000D01*
X106828Y90500D02*
X142000D01*
X78500Y116000D02*
X108000Y86500D01*
X143657D01*
X145657Y88500D02*
X149500D01*
X143657Y86500D02*
X145657Y88500D01*
X98500Y98828D02*
X106828Y90500D01*
X98500Y98828D02*
Y113071D01*
X90571Y121000D02*
X98500Y113071D01*
X76429Y121000D02*
X90571D01*
X73500Y118071D02*
X76429Y121000D01*
X73500Y116000D02*
Y118071D01*
X68500Y116000D02*
X73500D01*
X161500Y88500D02*
X169000D01*
X187000Y70500D01*
X356500Y114000D02*
X367500D01*
X354000Y111500D02*
X356500Y114000D01*
X354000Y98000D02*
Y111500D01*
X326500Y70500D02*
X354000Y98000D01*
X187000Y70500D02*
X326500D01*
X214500Y148000D02*
X324000Y257500D01*
Y293000D01*
X309172Y330000D02*
X320000Y319172D01*
X324000Y293000D02*
X331000Y300000D01*
X341500D01*
X292000Y330000D02*
X309172D01*
X292000Y350000D02*
X322000Y320000D01*
X173500Y295000D02*
X183000Y304500D01*
Y311672D01*
X217828Y346500D01*
X240521D01*
X242021Y348000D01*
X274000D01*
X292000Y330000D01*
X241192Y350000D02*
X292000D01*
X239692Y348500D02*
X241192Y350000D01*
X217000Y348500D02*
X239692D01*
X173500Y305000D02*
X217000Y348500D01*
X50500Y299000D02*
X55500Y304000D01*
X42500Y299000D02*
X50500D01*
X40500Y301000D02*
X42500Y299000D01*
X40500Y301000D02*
Y306071D01*
X45500Y304000D02*
X50500D01*
Y306071D02*
X54429Y310000D01*
X50500Y304000D02*
Y306071D01*
X40500D02*
X46429Y312000D01*
X116828D01*
X131828Y297000D01*
X54429Y310000D02*
X116000D01*
X131828Y297000D02*
X165500D01*
X173500Y305000D01*
X131000Y295000D02*
X173500D01*
X116000Y310000D02*
X131000Y295000D01*
X167500Y187500D02*
X184000D01*
X111000Y244000D02*
X167500Y187500D01*
X353000Y147500D02*
X357500Y152000D01*
X358000D01*
X353000Y167000D02*
X356000Y170000D01*
Y184657D01*
X378500Y207157D01*
Y280172D01*
X369172Y289500D02*
X378500Y280172D01*
X357000Y289500D02*
X369172D01*
X355000Y291500D02*
X357000Y289500D01*
X355000Y291500D02*
Y300000D01*
X358000Y152000D02*
Y183828D01*
X380500Y206328D01*
Y281000D01*
X370000Y291500D02*
X380500Y281000D01*
X360000Y183000D02*
X382500Y205500D01*
Y300000D01*
X370000Y291500D02*
Y299000D01*
X369000Y300000D02*
X370000Y299000D01*
X360000Y141500D02*
X367500Y134000D01*
X360000Y141500D02*
Y183000D01*
X48500Y116000D02*
Y232000D01*
X75500Y259000D01*
Y277000D01*
X108500Y244000D02*
X111000D01*
X75500Y277000D02*
X108500Y244000D01*
X75500Y277000D02*
Y304000D01*
D12*
X141300Y153000D02*
D03*
X131500D02*
D03*
X121700D02*
D03*
Y176500D02*
D03*
X131500D02*
D03*
X141300D02*
D03*
D13*
X141500Y134315D02*
D03*
Y123685D02*
D03*
D26*
X155500Y56500D02*
Y114500D01*
Y134500D02*
Y152000D01*
X131500Y159000D02*
Y176500D01*
Y153000D02*
Y159000D01*
X137000Y164500D01*
X143000D01*
X155500Y152000D01*
X163500Y184000D02*
X164500Y183000D01*
X128114Y184000D02*
X163500D01*
X126650Y182536D02*
X128114Y184000D01*
X126650Y176500D02*
Y182536D01*
X121700Y176500D02*
X126650D01*
X121700Y153000D02*
Y176500D01*
X133867Y134315D02*
X141500D01*
X126650Y141532D02*
X133867Y134315D01*
X126650Y141532D02*
Y148050D01*
X121700Y153000D02*
X126650Y148050D01*
X207500Y174000D02*
X230000D01*
X315500Y259500D01*
Y288000D01*
X155500Y56500D02*
X166000Y46000D01*
X186571Y183000D02*
X198500D01*
X186071Y182500D02*
X186571Y183000D01*
X181929Y182500D02*
X186071D01*
X181429Y183000D02*
X181929Y182500D01*
X164500Y183000D02*
X181429D01*
X198500D02*
X207500Y174000D01*
X369000Y310000D02*
X382500D01*
X355000D02*
X369000D01*
X341500D02*
X355000D01*
D27*
X85500Y304000D02*
D03*
X75500D02*
D03*
X45500D02*
D03*
X55500D02*
D03*
X65500D02*
D03*
X341500Y320000D02*
D03*
Y310000D02*
D03*
X355000D02*
D03*
Y320000D02*
D03*
X369000D02*
D03*
Y310000D02*
D03*
X382500D02*
D03*
Y320000D02*
D03*
X292000Y330000D02*
D03*
Y320000D02*
D03*
Y310000D02*
D03*
Y300000D02*
D03*
Y340000D02*
D03*
Y350000D02*
D03*
Y360000D02*
D03*
X111000Y305000D02*
D03*
Y285000D02*
D03*
Y275000D02*
D03*
Y264000D02*
D03*
Y254000D02*
D03*
Y244000D02*
D03*
Y234000D02*
D03*
Y295000D02*
D03*
X173500Y305000D02*
D03*
Y285000D02*
D03*
Y275000D02*
D03*
Y264000D02*
D03*
Y254000D02*
D03*
Y244000D02*
D03*
Y234000D02*
D03*
Y295000D02*
D03*
X38500Y116000D02*
D03*
X48500D02*
D03*
X58500D02*
D03*
X68500D02*
D03*
X78500D02*
D03*
X88500D02*
D03*
D28*
X341500Y300000D02*
D03*
X355000D02*
D03*
X369000D02*
D03*
X382500D02*
D03*
D29*
X155500Y124500D02*
D03*
Y134500D02*
D03*
Y114500D02*
D03*
D30*
X377500Y84000D02*
D03*
Y94000D02*
D03*
Y104000D02*
D03*
Y114000D02*
D03*
Y124000D02*
D03*
Y134000D02*
D03*
Y144000D02*
D03*
Y154000D02*
D03*
Y164000D02*
D03*
Y174000D02*
D03*
X367500Y84000D02*
D03*
Y94000D02*
D03*
Y104000D02*
D03*
Y114000D02*
D03*
Y124000D02*
D03*
Y134000D02*
D03*
Y144000D02*
D03*
Y154000D02*
D03*
Y164000D02*
D03*
X197500D02*
D03*
Y154000D02*
D03*
Y144000D02*
D03*
Y134000D02*
D03*
Y124000D02*
D03*
Y114000D02*
D03*
Y104000D02*
D03*
Y94000D02*
D03*
Y84000D02*
D03*
X207500Y174000D02*
D03*
Y164000D02*
D03*
Y154000D02*
D03*
Y144000D02*
D03*
Y134000D02*
D03*
Y124000D02*
D03*
Y114000D02*
D03*
Y104000D02*
D03*
Y94000D02*
D03*
Y84000D02*
D03*
D31*
X367500Y174000D02*
D03*
X197500D02*
D03*
D32*
X237000Y305000D02*
D03*
Y355000D02*
D03*
D33*
X24500Y68000D02*
D03*
X58500D02*
D03*
X94500D02*
D03*
X130500D02*
D03*
X165500D02*
D03*
D34*
X25000Y46000D02*
D03*
X59000D02*
D03*
X95000D02*
D03*
X131000D02*
D03*
X166000D02*
D03*
D35*
X315500Y288000D02*
D03*
X167500Y92956D02*
D03*
X142000Y90500D02*
D03*
X161500Y88500D02*
D03*
X149500D02*
D03*
X184000Y187500D02*
D03*
X353000Y147500D02*
D03*
Y167000D02*
D03*
D36*
X15000Y15000D02*
D03*
Y385000D02*
D03*
X385000D02*
D03*
Y15000D02*
D03*
M02*
